<?xml version="1.0" encoding="UTF-8"?>
<svg version="1.1" xmlns="http://www.w3.org/2000/svg" viewBox=" 0 0 497 162">
<path d="M0 0 C3.12460197 2.61594584 4.48059606 4.43580359 4.94476891 8.50581169 C4.94812059 9.33500681 4.95147228 10.16420193 4.95492554 11.01852417 C4.96345551 11.97456543 4.97198547 12.93060669 4.98077393 13.9156189 C4.97986755 14.95779572 4.97896118 15.99997253 4.97802734 17.07373047 C4.98810318 18.72801056 4.98810318 18.72801056 4.99838257 20.41571045 C5.0174009 24.06624846 5.0212887 27.71660301 5.0234375 31.3671875 C5.02986262 33.90300574 5.03659077 36.43882323 5.04360962 38.97463989 C5.05559191 44.29252134 5.05937505 49.61033432 5.05810547 54.92822266 C5.0569043 61.06768002 5.07800268 67.2067857 5.1095928 73.34615409 C5.13893423 79.26002655 5.14608057 85.17379195 5.14488602 91.08774185 C5.14724708 93.60035768 5.15609888 96.11297608 5.17155075 98.6255455 C5.19113941 102.13982093 5.18539984 105.65319055 5.17333984 109.16748047 C5.18457886 110.20560883 5.19581787 111.24373718 5.20739746 112.31332397 C5.15545472 118.26784577 4.67321451 121.72235881 0.6875 126.25 C-2.94419503 128.5702496 -6.23887053 128.50893217 -10.37890625 127.8671875 C-13.56562706 126.85001197 -15.26242612 124.79706149 -17.3125 122.25 C-18.50584813 119.86330374 -18.44596875 118.38658525 -18.45967102 115.72198486 C-18.46682632 114.76869293 -18.47398163 113.815401 -18.48135376 112.83322144 C-18.48404266 111.78385406 -18.48673157 110.73448669 -18.48950195 109.65332031 C-18.49607315 108.55075897 -18.50264435 107.44819763 -18.50941467 106.31222534 C-18.52918128 102.65085793 -18.54081782 98.9895316 -18.55078125 95.328125 C-18.55485678 94.07973595 -18.5589323 92.83134689 -18.56313133 91.54512787 C-18.58185225 85.61950397 -18.59641456 79.69389319 -18.6047433 73.76824689 C-18.61451056 66.93219947 -18.6408154 60.0964763 -18.68124419 53.26054311 C-18.71507171 47.33708045 -18.72689076 41.413697 -18.73094749 35.49013519 C-18.73582414 32.97192944 -18.74746857 30.45372742 -18.76598549 27.93558502 C-18.79028809 24.4115458 -18.78942761 20.88835488 -18.7824707 17.36425781 C-18.79528076 16.32298737 -18.80809082 15.28171692 -18.82128906 14.20889282 C-18.77828713 8.23545916 -18.2839949 4.80731301 -14.3125 0.25 C-9.85056409 -3.1349169 -4.73332379 -2.50062389 0 0 Z " fill="#32CB64" transform="translate(84.3125,17.75)"/>
<path d="M0 0 C3.07469523 1.70251719 5.40613254 3.81226508 7 7 C7.69956249 10.83169456 7.90074387 14.41876714 5.9296875 17.87890625 C4.06099629 20.05278573 2.06670734 22.01115919 0 24 C-1.19648662 25.20196724 -2.390267 26.40663157 -3.58203125 27.61328125 C-7.03244123 31.09839741 -10.51049235 34.5540507 -14 38 C-11.19616911 43.51286386 -7.95068463 48.63539527 -4.390625 53.6875 C-3.97590942 54.27958252 -3.56119385 54.87166504 -3.13391113 55.48168945 C-1.40565018 57.94610739 0.324743 60.40835165 2.08154297 62.85253906 C11.31158953 75.73024543 11.31158953 75.73024543 11 84 C9.75064779 87.96853056 8.68025091 89.50958655 5.3125 91.9375 C1.31402601 93.22002939 -2.0469465 93.58426807 -6 92 C-10.78970846 87.77045734 -14.12038482 82.70933528 -17.65625 77.421875 C-18.2810022 76.49586487 -18.90575439 75.56985474 -19.54943848 74.61578369 C-20.86653761 72.66086506 -22.18089544 70.70409706 -23.49267578 68.74560547 C-25.48683286 65.76964982 -27.49072945 62.80044308 -29.49609375 59.83203125 C-30.77923263 57.92487383 -32.06180327 56.01733396 -33.34375 54.109375 C-33.9365979 53.23093933 -34.5294458 52.35250366 -35.14025879 51.44744873 C-38.71132973 46.10384844 -41.97728308 40.67226156 -45 35 C-40.1979952 30.17269734 -35.39211921 25.34927439 -30.58349609 20.52856445 C-28.94717849 18.88720953 -27.31175837 17.24495937 -25.67724609 15.60180664 C-23.33144182 13.2439106 -20.98245799 10.88922375 -18.6328125 8.53515625 C-17.89942657 7.79660904 -17.16604065 7.05806183 -16.41043091 6.2971344 C-15.38959915 5.27618935 -15.38959915 5.27618935 -14.34814453 4.23461914 C-13.74857941 3.6328334 -13.14901428 3.03104767 -12.53128052 2.411026 C-8.95100392 -0.88808432 -4.61807086 -0.71285658 0 0 Z " fill="#32CB64" transform="translate(137,53)"/>
<path d="M0 0 C3.93580734 -0.29154128 7.20990582 0.05247645 11 1 C11.99 0.67 12.98 0.34 14 0 C23.98471675 -0.83319798 29.71595145 0.47730097 38 6 C38.47050781 5.65066406 38.94101562 5.30132812 39.42578125 4.94140625 C40.04839844 4.48636719 40.67101562 4.03132813 41.3125 3.5625 C41.92738281 3.11003906 42.54226563 2.65757813 43.17578125 2.19140625 C48.4138748 -1.22961844 55.01083869 -0.49673139 61 0 C67.19416674 1.65843819 71.53798643 5.69672444 75 11 C77.31788166 15.55374762 77.3219729 19.70097652 77.3359375 24.6953125 C77.3459227 25.93920242 77.3459227 25.93920242 77.35610962 27.20822144 C77.36620374 28.95470977 77.37092765 30.70123643 77.37060547 32.44775391 C77.37499731 35.12335991 77.41139988 37.79733976 77.44921875 40.47265625 C77.45508383 42.17186937 77.45905529 43.8710903 77.4609375 45.5703125 C77.47530853 46.37034698 77.48967957 47.17038147 77.50448608 47.99465942 C77.45914878 53.47958236 77.45914878 53.47958236 75.17041016 56.07373047 C73 57 73 57 69.8125 56.25 C67 55 67 55 66 54 C65.90168914 51.47840261 65.86286858 48.97921109 65.859375 46.45703125 C65.84103683 44.89256369 65.82146559 43.32811018 65.80078125 41.76367188 C65.77188039 39.29264846 65.75000199 36.82252139 65.74951172 34.35131836 C65.74616285 31.96907698 65.71152001 29.5889105 65.671875 27.20703125 C65.6789447 26.47555374 65.6860144 25.74407623 65.69329834 24.99043274 C65.55779467 19.23655612 63.94727109 16.88836216 60 13 C57.31020371 11.74579826 54.9372551 11.65511682 52 12 C48.60543542 13.63441998 46.62550634 14.81476001 44.85302734 18.17333984 C43.79540009 21.67797876 43.7212991 24.97678334 43.7265625 28.6015625 C43.70628908 30.07552864 43.68543862 31.54948694 43.6640625 33.0234375 C43.64139958 35.33209922 43.62496105 37.64045058 43.61914062 39.94921875 C43.6096379 42.18805973 43.57591352 44.4255283 43.5390625 46.6640625 C43.54410797 47.35472809 43.54915344 48.04539368 43.55435181 48.75698853 C43.48857808 51.95223334 43.36131547 53.60502458 41.16552734 56.00537109 C39 57 39 57 35.8125 56.25 C33 55 33 55 32 54 C31.87701194 51.53947734 31.81393053 49.10266247 31.7890625 46.640625 C31.7609808 45.117177 31.73231625 43.59373965 31.703125 42.0703125 C31.66194238 39.66309046 31.62506659 37.25606447 31.59863281 34.84863281 C31.57093706 32.52887518 31.52505189 30.21002893 31.4765625 27.890625 C31.47330963 27.17585999 31.47005676 26.46109497 31.46670532 25.72467041 C31.35888591 21.31790409 30.67207164 18.52334393 28 15 C24.96510436 12.4709203 23.48112565 12 19.5 12 C15.35450568 13.18442695 13.6894441 14.67774552 11 18 C9.82410547 21.52768358 9.84615299 24.73530208 9.82421875 28.40625 C9.80103063 29.88673313 9.77691371 31.36720195 9.75195312 32.84765625 C9.7167742 35.17832166 9.68745146 37.50845622 9.67407227 39.83935547 C9.65862078 42.09146857 9.61844849 44.34204252 9.57421875 46.59375 C9.57612717 47.2906897 9.57803558 47.98762939 9.58000183 48.70568848 C9.49871784 51.91336588 9.36664056 53.59880566 7.16333008 56.00976562 C5 57 5 57 1.8125 56.25 C-1 55 -1 55 -2 54 C-2.10374452 52.42014249 -2.13851868 50.83568718 -2.14526367 49.25244141 C-2.15164352 48.24114166 -2.15802338 47.22984192 -2.16459656 46.18789673 C-2.16570938 45.08690643 -2.1668222 43.98591614 -2.16796875 42.8515625 C-2.17129715 41.72809418 -2.17462555 40.60462585 -2.17805481 39.44711304 C-2.18312936 37.0646811 -2.18546297 34.68224202 -2.18530273 32.29980469 C-2.18748645 28.6476675 -2.20562919 24.99583355 -2.22460938 21.34375 C-2.22754369 19.0338552 -2.22952823 16.72395897 -2.23046875 14.4140625 C-2.23765427 13.31712067 -2.24483978 12.22017883 -2.25224304 11.08999634 C-2.24916641 10.07239227 -2.24608978 9.05478821 -2.24291992 8.00634766 C-2.24434494 7.11001617 -2.24576996 6.21368469 -2.24723816 5.29019165 C-2 3 -2 3 0 0 Z " fill="#21293F" transform="translate(233,34)"/>
<path d="M0 0 C3.07469523 1.70251719 5.40613254 3.81226508 7 7 C7.11357457 9.43964533 7.16779463 11.85142971 7.17700195 14.29199219 C7.18357315 15.04342499 7.19014435 15.79485779 7.19691467 16.56906128 C7.21666223 19.06166683 7.22831443 21.55421205 7.23828125 24.046875 C7.24235678 24.89809181 7.2464323 25.74930862 7.25063133 26.62631989 C7.27149985 31.13303892 7.28579728 35.63972745 7.29516602 40.14648438 C7.30622272 44.79821402 7.34061161 49.44946429 7.38033772 54.10102463 C7.40650591 57.68016438 7.4148581 61.25919005 7.41844749 64.83841705 C7.42331418 66.55280031 7.43493055 68.26717845 7.45348549 69.9814682 C7.47787848 72.38483926 7.47691195 74.78697229 7.4699707 77.19042969 C7.48278076 77.89507355 7.49559082 78.59971741 7.50878906 79.32571411 C7.45634072 84.32340642 6.12568977 87.14813851 3 91 C-0.63169503 93.3202496 -3.92637053 93.25893217 -8.06640625 92.6171875 C-11.25312706 91.60001197 -12.94992612 89.54706149 -15 87 C-16.48843932 84.02312137 -16.17335102 80.97395136 -16.19287109 77.70800781 C-16.20513733 76.58085861 -16.20513733 76.58085861 -16.21765137 75.43093872 C-16.24251034 72.93834227 -16.25902385 70.44580285 -16.2734375 67.953125 C-16.27876118 67.10190819 -16.28408485 66.25069138 -16.28956985 65.37368011 C-16.31630545 60.86696777 -16.33567777 56.36028316 -16.35009766 51.85351562 C-16.36673383 47.20167611 -16.41150127 42.55054667 -16.4624691 37.89897537 C-16.49615285 34.31983644 -16.50767636 30.74086569 -16.51332474 27.16158295 C-16.52003566 25.44717745 -16.53525371 23.73278297 -16.55921555 22.0185318 C-16.59089183 19.61495958 -16.59090092 17.21329709 -16.58349609 14.80957031 C-16.59990143 14.10492645 -16.61630676 13.40028259 -16.63320923 12.67428589 C-16.56278545 7.07269699 -14.81774413 4.79690477 -11 1 C-7.51556578 -0.74221711 -3.80112955 -0.58675154 0 0 Z " fill="#32CB64" transform="translate(49,53)"/>
<path d="M0 0 C6.70582549 4.18589107 12.57738466 9.42670058 14.87109375 17.16796875 C15.6521366 20.86250696 16.33858919 24.40463047 15.87109375 28.16796875 C14.42285156 30.30078125 14.42285156 30.30078125 11.87109375 32.16796875 C8.82052048 32.72360261 5.82227795 32.63331035 2.73046875 32.55859375 C1.84828674 32.55293396 0.96610474 32.54727417 0.05718994 32.54144287 C-2.75539838 32.51908466 -5.5667042 32.46889007 -8.37890625 32.41796875 C-10.28774199 32.397903 -12.19659774 32.37965236 -14.10546875 32.36328125 C-18.7804407 32.31922175 -23.45445617 32.25019859 -28.12890625 32.16796875 C-25.12779062 36.92027767 -22.54921981 40.27245635 -17.12890625 42.16796875 C-12.34128487 42.99838803 -8.60797954 42.74333414 -4.44140625 40.16796875 C-0.87780083 38.01635793 0.8002839 37.3353031 4.87109375 38.16796875 C6.87109375 40.35546875 6.87109375 40.35546875 7.87109375 43.16796875 C6.99216339 47.67248682 4.58272161 49.66477787 0.87109375 52.16796875 C-6.25766167 55.41696746 -14.36000058 56.06249873 -21.9375 54.015625 C-29.40831544 51.12584434 -35.21103279 46.15591355 -39.12890625 39.16796875 C-42.27799509 31.2465494 -42.41730549 22.6587195 -39.37890625 14.66796875 C-35.93433962 7.23874665 -30.95794866 2.11037687 -23.33203125 -0.95703125 C-16.11639326 -2.92813236 -6.93112129 -3.17490072 0 0 Z M-26.62890625 15.79296875 C-28.30690391 17.98162745 -28.30690391 17.98162745 -28.12890625 20.16796875 C-17.89890625 20.16796875 -7.66890625 20.16796875 2.87109375 20.16796875 C-0.91944404 13.73221055 -0.91944404 13.73221055 -7.00390625 9.91796875 C-14.97844903 8.00407848 -20.98423317 9.86606201 -26.62890625 15.79296875 Z " fill="#21293F" transform="translate(479.12890625,35.83203125)"/>
<path d="M0 0 C2 2 2 2 2.22705078 5.99072266 C2.22673337 7.71520169 2.21539124 9.43970033 2.1953125 11.1640625 C2.1924826 12.07127045 2.18965271 12.97847839 2.18673706 13.91317749 C2.17552153 16.81725123 2.15041463 19.72101912 2.125 22.625 C2.11497197 24.59114139 2.10584581 26.5572876 2.09765625 28.5234375 C2.07557772 33.34907659 2.04103865 38.1744864 2 43 C5.14642649 40.95924638 8.29202871 38.91722554 11.4375 36.875 C12.31599609 36.30523437 13.19449219 35.73546875 14.09960938 35.1484375 C14.97294922 34.58125 15.84628906 34.0140625 16.74609375 33.4296875 C17.62112549 32.8627417 18.49615723 32.2957959 19.39770508 31.71166992 C21.12154599 30.57780665 22.83271471 29.42442001 24.5300293 28.2512207 C25.31676025 27.70812256 26.10349121 27.16502441 26.9140625 26.60546875 C27.60838379 26.11715576 28.30270508 25.62884277 29.01806641 25.12573242 C32.11333003 23.36763183 34.56118625 23.36838115 38 24 C40.32028065 27.48042098 40.53359059 28.90561679 40 33 C38.19921875 34.87109375 38.19921875 34.87109375 35.6875 36.4375 C34.78644531 37.015 33.88539063 37.5925 32.95703125 38.1875 C31.98121094 38.785625 31.00539063 39.38375 30 40 C27.95791719 41.31185244 25.91623645 42.62433102 23.875 43.9375 C22.25145607 44.96064749 20.62699749 45.98235328 19 47 C23.07165755 52.68317873 27.47744139 57.83148987 32.3125 62.875 C33.56064372 64.18294265 34.80683896 65.49274836 36.05078125 66.8046875 C36.59387939 67.37171387 37.13697754 67.93874023 37.6965332 68.52294922 C39.63120198 70.71525978 39.99894051 71.99170065 40.375 74.9375 C40 78 40 78 37.8125 80 C35 81 35 81 32.72265625 80.4765625 C28.9280204 78.41863947 26.47117048 75.57840073 23.625 72.375 C23.05426758 71.74489014 22.48353516 71.11478027 21.89550781 70.46557617 C20.76707857 69.21656492 19.6426039 67.96396746 18.52246094 66.70751953 C17.23536595 65.26397521 15.93548619 63.8318454 14.6328125 62.40234375 C10.13762349 57.41287047 10.13762349 57.41287047 9 54 C8.21625 54.495 7.4325 54.99 6.625 55.5 C4 57 4 57 2 57 C2.02094727 57.62044189 2.04189453 58.24088379 2.06347656 58.88012695 C2.14661406 61.69075318 2.19865061 64.50112096 2.25 67.3125 C2.28351563 68.28896484 2.31703125 69.26542969 2.3515625 70.27148438 C2.36445313 71.20927734 2.37734375 72.14707031 2.390625 73.11328125 C2.41157227 73.97735596 2.43251953 74.84143066 2.45410156 75.73168945 C2 78 2 78 0.17480469 79.85229492 C-2 81 -2 81 -5.1875 80.25 C-8 79 -8 79 -9 78 C-9.11085094 75.67364783 -9.15737857 73.37669412 -9.16113281 71.04931641 C-9.16609772 70.32247147 -9.17106262 69.59562653 -9.17617798 68.84675598 C-9.19083551 66.43168201 -9.19760768 64.01667373 -9.203125 61.6015625 C-9.20887371 59.92866004 -9.21463147 58.25575762 -9.22039795 56.58285522 C-9.23091831 53.07053316 -9.23675412 49.55823405 -9.24023438 46.04589844 C-9.24571987 41.54077968 -9.26974456 37.03596306 -9.29820633 32.5309391 C-9.31681225 29.07373158 -9.32203722 25.61659709 -9.32357025 22.15934372 C-9.32660219 20.49831872 -9.3346489 18.83729518 -9.34775543 17.17631912 C-9.36477294 14.85380204 -9.36294654 12.53202645 -9.35644531 10.20947266 C-9.3656601 9.52052414 -9.37487488 8.83157562 -9.3843689 8.12174988 C-9.35958155 5.30107952 -9.29427631 3.42698743 -7.66912842 1.06893921 C-5.08834287 -0.58384127 -2.98015547 -0.31703782 0 0 Z " fill="#21293F" transform="translate(391,10)"/>
<path d="M0 0 C6.17449387 4.34012967 11.54721039 10.8467759 13.01171875 18.4140625 C13.2552463 23.01488582 13.28216001 27.61652706 13.30688477 32.22290039 C13.31845526 33.72722745 13.33898648 35.23151188 13.3684082 36.7355957 C13.410947 38.91125314 13.42722781 41.08569795 13.4375 43.26171875 C13.45208252 44.56117432 13.46666504 45.86062988 13.48168945 47.19946289 C13.01171875 50.4140625 13.01171875 50.4140625 11.14526367 52.36499023 C9.01171875 53.4140625 9.01171875 53.4140625 6.44921875 53.3515625 C3.55670481 52.23905714 2.60923009 51.02052838 1.01171875 48.4140625 C-0.10203125 49.0534375 -1.21578125 49.6928125 -2.36328125 50.3515625 C-9.32783515 53.80313154 -16.43747174 54.14182507 -23.90234375 52.125 C-31.42828777 49.55997788 -36.48100716 44.90088264 -40.98828125 38.4140625 C-44.42760658 30.99658421 -45.12034602 23.62893501 -42.73828125 15.7890625 C-39.63029619 7.40038059 -34.4425449 2.19797728 -26.98828125 -2.4609375 C-18.28372479 -5.72269003 -7.88772619 -4.66744789 0 0 Z M-29.82421875 15.79296875 C-32.84947081 20.00598756 -32.6187127 24.39993329 -31.98828125 29.4140625 C-30.24858401 34.19416519 -27.6068899 37.41446275 -23.17578125 39.9140625 C-18.42747973 41.91334735 -14.04026425 42.5764267 -9.0703125 40.68359375 C-3.98151408 38.02526622 -1.07060941 34.73333714 1.32421875 29.6015625 C2.53377874 23.99360253 1.99906133 19.47580739 -1.05078125 14.6640625 C-4.69169653 10.06556546 -9.30152479 7.79788485 -15.05078125 6.9765625 C-21.98552155 8.00939616 -25.52798651 10.45139658 -29.82421875 15.79296875 Z " fill="#21293F" transform="translate(361.98828125,37.5859375)"/>
<path d="M0 0 C2.64 0 5.28 0 8 0 C8 53.46 8 106.92 8 162 C5.36 162 2.72 162 0 162 C0 108.54 0 55.08 0 0 Z " fill="#E5E5E5" transform="translate(184,0)"/>
<path d="M0 0 C3.12291165 1.68012647 5.39164837 3.78329674 7 7 C7.12374456 10.00380556 7.18846049 12.98346439 7.203125 15.98828125 C7.20882507 16.88363083 7.21452515 17.77898041 7.22039795 18.70146179 C7.2298539 20.59873267 7.23638429 22.49602001 7.24023438 24.39331055 C7.24992639 27.2904953 7.28093831 30.18696662 7.3125 33.08398438 C7.31903143 34.92707912 7.32428135 36.77017894 7.328125 38.61328125 C7.3404718 39.47802567 7.3528186 40.34277008 7.36553955 41.23371887 C7.34804208 45.97973135 7.11255178 49.16373842 4 53 C-0.11094503 55.86810119 -3.27567046 56.4751491 -8.1015625 55.65234375 C-11.88908934 54.35086848 -14.25115539 51.49768921 -16 48 C-16.12374456 44.99619444 -16.18846049 42.01653561 -16.203125 39.01171875 C-16.20882507 38.11636917 -16.21452515 37.22101959 -16.22039795 36.29853821 C-16.2298539 34.40126733 -16.23638429 32.50397999 -16.24023438 30.60668945 C-16.24992639 27.7095047 -16.28093831 24.81303338 -16.3125 21.91601562 C-16.31903143 20.07292088 -16.32428135 18.22982106 -16.328125 16.38671875 C-16.3404718 15.52197433 -16.3528186 14.65722992 -16.36553955 13.76628113 C-16.34806206 9.02568894 -16.12514932 5.82130517 -13 2 C-8.7581081 -0.82792793 -4.98126257 -0.78122286 0 0 Z " fill="#32CB64" transform="translate(16,90)"/>
<path d="M0 0 C2.475 0.495 2.475 0.495 5 1 C5.66 0.67 6.32 0.34 7 0 C12.23803691 -0.44250606 16.13551808 -0.00302197 21 2 C21.99 1.34 22.98 0.68 24 0 C27.39107371 -0.54602034 30.60874176 -0.54627924 34 0 C36.82424288 2.19022918 38.41508603 3.83017207 40 7 C40.08372659 8.52148326 40.10730027 10.04655778 40.09765625 11.5703125 C40.09443359 12.46621094 40.09121094 13.36210937 40.08789062 14.28515625 C40.07532227 15.69087891 40.07532227 15.69087891 40.0625 17.125 C40.05798828 18.06988281 40.05347656 19.01476562 40.04882812 19.98828125 C40.03702357 22.32558387 40.02055759 24.66276061 40 27 C38.68 27 37.36 27 36 27 C35.98541748 26.44014404 35.97083496 25.88028809 35.95581055 25.3034668 C35.88128648 22.76411863 35.78464419 20.22607922 35.6875 17.6875 C35.66494141 16.80642578 35.64238281 15.92535156 35.61914062 15.01757812 C35.58369141 14.17001953 35.54824219 13.32246094 35.51171875 12.44921875 C35.48553467 11.66893311 35.45935059 10.88864746 35.43237305 10.0847168 C34.89489316 7.49322005 34.09601593 6.58167136 32 5 C29 4.41666667 29 4.41666667 26 5 C23.19843472 7.46883781 22.76950421 9.75779978 22.48828125 13.328125 C22.41553672 14.96818349 22.35737267 16.6089424 22.3125 18.25 C22.27833984 19.09046875 22.24417969 19.9309375 22.20898438 20.796875 C22.12676432 22.86412204 22.06169843 24.93203874 22 27 C20.68 27 19.36 27 18 27 C17.98541748 26.44014404 17.97083496 25.88028809 17.95581055 25.3034668 C17.88128648 22.76411863 17.78464419 20.22607922 17.6875 17.6875 C17.66494141 16.80642578 17.64238281 15.92535156 17.61914062 15.01757812 C17.5659668 13.74624023 17.5659668 13.74624023 17.51171875 12.44921875 C17.48553467 11.66893311 17.45935059 10.88864746 17.43237305 10.0847168 C16.89489316 7.49322005 16.09601593 6.58167136 14 5 C11 4.41666667 11 4.41666667 8 5 C5.19843472 7.46883781 4.76950421 9.75779978 4.48828125 13.328125 C4.41553672 14.96818349 4.35737267 16.6089424 4.3125 18.25 C4.27833984 19.09046875 4.24417969 19.9309375 4.20898438 20.796875 C4.12676432 22.86412204 4.06169843 24.93203874 4 27 C2.68 27 1.36 27 0 27 C0 18.09 0 9.18 0 0 Z " fill="#21293F" transform="translate(291,119)"/>
<path d="M0 0 C2.475 0.495 2.475 0.495 5 1 C5.33 0.67 5.66 0.34 6 0 C8.14453125 -0.203125 8.14453125 -0.203125 10.8125 -0.25 C11.68519531 -0.27578125 12.55789063 -0.3015625 13.45703125 -0.328125 C16.43904377 0.05665081 17.7771114 1.03100777 20 3 C20.474375 2.505 20.94875 2.01 21.4375 1.5 C25.24196166 -0.72700194 28.69803308 -0.81127058 33 0 C36.57052209 1.93341549 38.69451966 4.08355899 40 8 C40.0806622 9.48123547 40.10761193 10.96582204 40.09765625 12.44921875 C40.09443359 13.29677734 40.09121094 14.14433594 40.08789062 15.01757812 C40.07532227 16.33918945 40.07532227 16.33918945 40.0625 17.6875 C40.05798828 18.58017578 40.05347656 19.47285156 40.04882812 20.39257812 C40.03704983 22.59511987 40.02060164 24.79752599 40 27 C39.01 27.33 38.02 27.66 37 28 C34.68156906 25.68156906 35.64333644 19.02115323 35.5703125 15.70117188 C35.43200262 12.14833694 35.3332351 9.6279459 33.6484375 6.453125 C31.98337121 4.71872015 31.98337121 4.71872015 29 4.5625 C25.66505538 5.04884609 24.99444007 5.40291815 23 8 C22.49945249 10.11615844 22.49945249 10.11615844 22.48828125 12.44921875 C22.45283203 13.29677734 22.41738281 14.14433594 22.38085938 15.01757812 C22.35830078 15.89865234 22.33574219 16.77972656 22.3125 17.6875 C22.26125977 19.02651367 22.26125977 19.02651367 22.20898438 20.39257812 C22.12654352 22.59492671 22.05738449 24.79687938 22 27 C20.68 27 19.36 27 18 27 C17.96261719 25.74703125 17.92523438 24.4940625 17.88671875 23.203125 C17.82105115 21.55205379 17.75460407 19.90101345 17.6875 18.25 C17.66494141 17.425 17.64238281 16.6 17.61914062 15.75 C17.46110465 12.18700709 17.33543127 9.63122945 15.64453125 6.44921875 C13.98240902 4.71864759 13.98240902 4.71864759 11 4.5625 C7.66505538 5.04884609 6.99444007 5.40291815 5 8 C4.49945249 10.11615844 4.49945249 10.11615844 4.48828125 12.44921875 C4.45283203 13.29677734 4.41738281 14.14433594 4.38085938 15.01757812 C4.35830078 15.89865234 4.33574219 16.77972656 4.3125 17.6875 C4.27833984 18.58017578 4.24417969 19.47285156 4.20898438 20.39257812 C4.12654352 22.59492671 4.05738449 24.79687938 4 27 C2.68 27 1.36 27 0 27 C0 18.09 0 9.18 0 0 Z " fill="#21293F" transform="translate(336,119)"/>
<path d="M0 0 C4.94693352 2.33855039 7.11924899 4.88017779 9 10 C9.25 12.8125 9.25 12.8125 9 15 C7.34920558 16.65079442 5.36263821 16.22549447 3.08984375 16.31640625 C2.10048828 16.35830078 1.11113281 16.40019531 0.09179688 16.44335938 C-0.94912109 16.48267578 -1.99003906 16.52199219 -3.0625 16.5625 C-4.10728516 16.60568359 -5.15207031 16.64886719 -6.22851562 16.69335938 C-8.81886884 16.79981225 -11.40932186 16.9018276 -14 17 C-9.81196896 21.63230875 -9.81196896 21.63230875 -4 23 C-2.327767 22.34742127 -0.66072849 21.68132451 1 21 C3.3125 21.375 3.3125 21.375 5 22 C3.9945671 25.01629869 3.26532304 25.86733848 0.375 27.3125 C-4.61094874 28.32815622 -8.70757153 28.47244444 -13.03125 25.6953125 C-16.61642877 22.74194802 -18.67720836 20.77812478 -19.23828125 15.94921875 C-19.41915946 10.43719317 -18.78759517 7.29943235 -15 3 C-10.62994645 -0.8559296 -5.54488203 -0.79085657 0 0 Z M-14 9 C-14.33 9.99 -14.66 10.98 -15 12 C-8.4 12 -1.8 12 5 12 C2.66151858 6.08268982 2.66151858 6.08268982 -1 4 C-7.35100005 3.28295161 -9.91414723 3.67601003 -14 9 Z " fill="#21293F" transform="translate(488,119)"/>
<path d="M0 0 C4.32843494 1.93233703 5.63736199 3.32307572 7.875 7.5 C9 11 9 11 9 15 C6.59458071 16.20270964 4.89633409 16.20316663 2.2109375 16.31640625 C1.26992188 16.35830078 0.32890625 16.40019531 -0.640625 16.44335938 C-1.62546875 16.48267578 -2.6103125 16.52199219 -3.625 16.5625 C-4.61757813 16.60568359 -5.61015625 16.64886719 -6.6328125 16.69335938 C-9.08839838 16.79961069 -11.54408703 16.90164964 -14 17 C-11.22208707 20.92253674 -11.22208707 20.92253674 -7 22.9375 C-3.83973187 23.00333892 -2.67764818 22.51733397 0 21 C1.32 21 2.64 21 4 21 C4 22.32 4 23.64 4 25 C-0.54478937 27.3670778 -3.88485873 28.59687121 -9.00390625 27.71875 C-13.20288233 26.20678992 -17.00074268 22.99851463 -19 19 C-19.41593526 14.48070346 -19.55848834 10.35212967 -17.8125 6.125 C-12.44667573 -0.16596639 -8.12938234 -1.15792964 0 0 Z M-14 8 C-14.33 9.32 -14.66 10.64 -15 12 C-8.73 12 -2.46 12 4 12 C2.83594603 7.34378411 2.01885656 6.44626051 -2 4 C-7.43023335 3.22425238 -10.2192615 3.99686512 -14 8 Z " fill="#21293F" transform="translate(400,119)"/>
<path d="M0 0 C3.83378636 1.81233537 5.53351018 3.30026527 7.875 6.8125 C9.60690553 11.71956568 9.63147999 15.30497476 7.8125 20.1875 C4.84065055 24.79899053 2.49857341 26.63744192 -2.875 27.9375 C-7.21351501 28.27312097 -10.21140256 27.18572929 -14 25 C-18.24881861 20.41574835 -19.35987738 17.43359112 -19.28125 11.3203125 C-18.72677154 6.74586522 -16.21418714 4.07134159 -12.875 1.125 C-8.55329774 -0.56610088 -4.57654989 -0.6527451 0 0 Z M-14 9 C-15.42662219 11.85324437 -15.31033868 13.83454549 -15 17 C-12.95063686 20.60687913 -11.42918601 21.80925066 -7.625 23.5 C-3.23055093 24.10613091 -1.59883515 23.53554295 2 21 C4.59848021 17.98241008 5 16.50411384 5 12.5 C3.77792202 8.22272709 2.64184981 6.55704348 -1 4 C-6.98657561 2.51242667 -10.18802801 4.14839929 -14 9 Z " fill="#21293F" transform="translate(277,119)"/>
<path d="M0 0 C0.95648438 -0.02578125 1.91296875 -0.0515625 2.8984375 -0.078125 C6.00392147 0.29560086 7.33036066 1.18373709 9.625 3.25 C9.295 4.57 8.965 5.89 8.625 7.25 C7.6040625 6.755 7.6040625 6.755 6.5625 6.25 C2.9481198 5.0195727 0.4222953 4.77533809 -3.375 5.25 C-6.45833333 7.16666667 -6.45833333 7.16666667 -8.375 10.25 C-9.04949963 14.44688661 -8.84340345 16.45197931 -6.6875 20.125 C-4.08055342 22.52057253 -2.89149667 23.16423179 0.625 23.25 C2.31077711 22.63325228 3.97948038 21.96727778 5.625 21.25 C6.945 21.25 8.265 21.25 9.625 21.25 C9.625 22.57 9.625 23.89 9.625 25.25 C4.29491776 28.0260845 0.47965873 29.00758518 -5.375 27.25 C-9.39707349 25.08999757 -11.70119171 23.48729846 -13.375 19.25 C-14.1062677 14.6584826 -14.45314881 10.14502844 -12.1015625 6.01171875 C-8.30278865 1.53657785 -5.92743986 0.09534756 0 0 Z " fill="#21293F" transform="translate(242.375,118.75)"/>
<path d="M0 0 C0.95648438 -0.02578125 1.91296875 -0.0515625 2.8984375 -0.078125 C6.00392147 0.29560086 7.33036066 1.18373709 9.625 3.25 C9.295 4.57 8.965 5.89 8.625 7.25 C7.6040625 6.755 7.6040625 6.755 6.5625 6.25 C2.9481198 5.0195727 0.4222953 4.77533809 -3.375 5.25 C-6.30552231 7.24524923 -8.02021503 8.67836485 -8.8203125 12.22265625 C-9.01344052 15.66677252 -8.65340097 17.84786527 -6.6875 20.6875 C-4.07967359 22.44954487 -2.51757113 23.09670385 0.625 23.25 C2.31077711 22.63325228 3.97948038 21.96727778 5.625 21.25 C6.945 21.25 8.265 21.25 9.625 21.25 C9.625 22.57 9.625 23.89 9.625 25.25 C4.29491776 28.0260845 0.47965873 29.00758518 -5.375 27.25 C-9.39707349 25.08999757 -11.70119171 23.48729846 -13.375 19.25 C-14.1062677 14.6584826 -14.45314881 10.14502844 -12.1015625 6.01171875 C-8.30278865 1.53657785 -5.92743986 0.09534756 0 0 Z " fill="#21293F" transform="translate(453.375,118.75)"/>
<path d="M0 0 C1.32 0 2.64 0 4 0 C4.33 0.66 4.66 1.32 5 2 C5.55429687 1.67386719 6.10859375 1.34773438 6.6796875 1.01171875 C9.34928201 -0.15229636 11.22597383 -0.23509595 14.125 -0.1875 C14.99382812 -0.18105469 15.86265625 -0.17460938 16.7578125 -0.16796875 C19 0 19 0 21 1 C20.67 2.32 20.34 3.64 20 5 C18.98679687 4.93039063 18.98679687 4.93039063 17.953125 4.859375 C12.32865686 4.49184695 12.32865686 4.49184695 7.4375 6.875 C4.73264258 10.87348489 4.68563365 14.41452836 4.4375 19.125 C4.39431641 19.87910156 4.35113281 20.63320312 4.30664062 21.41015625 C4.2005168 23.27321888 4.09974999 25.13658524 4 27 C2.68 27 1.36 27 0 27 C0 18.09 0 9.18 0 0 Z " fill="#21293F" transform="translate(414,119)"/>
</svg>
